<svg width="39" height="38" viewBox="0 0 39 38" fill="none" xmlns="http://www.w3.org/2000/svg">
<path fill-rule="evenodd" clip-rule="evenodd" d="M19.5 38C30.2696 38 39 29.4934 39 19C39 8.50659 30.2696 0 19.5 0C8.73045 0 0 8.50659 0 19C0 29.4934 8.73045 38 19.5 38Z" fill="#2BE080"/>
<path d="M15.1969 21.3303C15.8987 21.3303 16.6374 21.6239 17.45 22.2477C18.4473 23.0183 19.1122 23.3853 19.4815 23.3853C20.0356 23.3853 20.2941 23.0917 20.2941 22.5413C20.2941 22.2477 20.1464 21.9908 19.814 21.7706C19.6293 21.6606 18.7059 21.2936 16.9698 20.7064C14.1626 19.7156 12.759 17.9174 12.759 15.2385C12.759 13.2202 13.4978 11.6422 14.9752 10.5046C16.305 9.51376 17.8932 9 19.814 9C21.4761 9 22.9167 9.40367 24.1356 10.1743C25.3545 10.945 25.9824 11.9725 25.9824 13.2202C25.9824 13.9541 25.7608 14.578 25.2806 15.0917C24.8004 15.6055 24.2094 15.8257 23.4707 15.8257C22.695 15.8257 21.8455 15.4587 20.8851 14.7248C20.2941 14.2844 19.8509 14.0275 19.5554 14.0275C19.0383 14.0275 18.7797 14.2844 18.7797 14.7615C18.7797 15.2385 19.4077 15.6789 20.7004 16.0459C22.4734 16.5963 23.8031 17.2569 24.7635 18.0642C26.0563 19.1284 26.6842 20.5963 26.6842 22.5046C26.6842 24.5963 25.9824 26.211 24.5419 27.3853C23.2121 28.4862 21.4761 29 19.3338 29C17.1914 29 15.4185 28.4495 14.0149 27.3119C12.9068 26.3945 12.3158 25.367 12.3158 24.156C12.3158 23.3486 12.5744 22.6881 13.1284 22.1376C13.7194 21.6239 14.3843 21.3303 15.1969 21.3303Z" fill="white"/>
</svg>
